<?xml version="1.0" encoding="UTF-8" standalone="no"?>
<!-- Created with Inkscape (http://www.inkscape.org/) -->

<svg
   xmlns:dc="http://purl.org/dc/elements/1.1/"
   xmlns:cc="http://creativecommons.org/ns#"
   xmlns:rdf="http://www.w3.org/1999/02/22-rdf-syntax-ns#"
   xmlns:svg="http://www.w3.org/2000/svg"
   xmlns="http://www.w3.org/2000/svg"
   xmlns:sodipodi="http://sodipodi.sourceforge.net/DTD/sodipodi-0.dtd"
   xmlns:inkscape="http://www.inkscape.org/namespaces/inkscape"
   width="512"
   height="512"
   viewBox="0 0 511.99999 511.99999"
   id="svg4140"
   version="1.1"
   inkscape:version="0.91 r13725"
   sodipodi:docname="lancher_icon.svg"
   inkscape:export-filename="/Users/daniele/Desktop/icon_512.png"
   inkscape:export-xdpi="90"
   inkscape:export-ydpi="90">
  <defs
     id="defs4142" />
  <sodipodi:namedview
     id="base"
     pagecolor="#ffffff"
     bordercolor="#666666"
     borderopacity="1.0"
     inkscape:pageopacity="0.0"
     inkscape:pageshadow="2"
     inkscape:zoom="0.96"
     inkscape:cx="277.78285"
     inkscape:cy="274.80632"
     inkscape:document-units="px"
     inkscape:current-layer="layer1"
     showgrid="false"
     units="px"
     inkscape:showpageshadow="false"
     inkscape:window-width="1280"
     inkscape:window-height="751"
     inkscape:window-x="0"
     inkscape:window-y="1"
     inkscape:window-maximized="1" />
  <metadata
     id="metadata4145">
    <rdf:RDF>
      <cc:Work
         rdf:about="">
        <dc:format>image/svg+xml</dc:format>
        <dc:type
           rdf:resource="http://purl.org/dc/dcmitype/StillImage" />
        <dc:title></dc:title>
      </cc:Work>
    </rdf:RDF>
  </metadata>
  <g
     inkscape:label="Layer 1"
     inkscape:groupmode="layer"
     id="layer1"
     transform="translate(0,-540.36219)">
    <circle
       style="opacity:1;fill:#000000;fill-opacity:1;fill-rule:evenodd;stroke:none;stroke-width:4;stroke-linecap:round;stroke-linejoin:round;stroke-miterlimit:4;stroke-dasharray:none;stroke-opacity:0"
       id="path4688"
       cx="256"
       cy="796.36218"
       r="256" />
    <path
       style="fill:#ffffff"
       d="m 230.73917,518.48719 0,52.03622 C 125.39888,582.14367 41.784397,665.76105 30.164126,771.10132 l -52.039125,0 0,50.52168 52.039125,0 c 11.620271,105.34029 95.234754,188.9577 200.575044,200.578 l 0,52.0362 50.52168,0 0,-52.0362 C 386.60114,1010.5807 470.21853,926.96329 481.8388,821.623 l 52.0362,0 0,-50.52168 -52.0362,0 C 470.21853,665.76105 386.60114,582.14367 281.26085,570.52341 l 0,-52.03622 -50.52168,0 z M 256,619.53344 c 97.76186,0 176.83167,79.06689 176.83167,176.82873 0,97.76184 -79.06981,176.83166 -176.83167,176.83166 -97.76186,0 -176.828752,-79.0698 -176.828752,-176.83166 0,-97.76184 79.066892,-176.82873 176.828752,-176.82873 z"
       id="path6"
       inkscape:connector-curvature="0"
       inkscape:export-filename="/Users/daniele/Desktop/path6.png"
       inkscape:export-xdpi="90"
       inkscape:export-ydpi="90" />
    <path
       inkscape:connector-curvature="0"
       d="m 334,718.36219 -156,65.26 0,8.49333 59.28,22.96667 22.88,59.28 8.49333,0 65.34667,-156 z"
       id="path6-9"
       style="fill:#ffffff" />
  </g>
</svg>
