<?xml version="1.0" encoding="UTF-8" standalone="no"?>
<!-- Created with Inkscape (http://www.inkscape.org/) -->

<svg
   xmlns:dc="http://purl.org/dc/elements/1.1/"
   xmlns:cc="http://creativecommons.org/ns#"
   xmlns:rdf="http://www.w3.org/1999/02/22-rdf-syntax-ns#"
   xmlns:svg="http://www.w3.org/2000/svg"
   xmlns="http://www.w3.org/2000/svg"
   xmlns:sodipodi="http://sodipodi.sourceforge.net/DTD/sodipodi-0.dtd"
   xmlns:inkscape="http://www.inkscape.org/namespaces/inkscape"
   width="512"
   height="512"
   viewBox="0 0 511.99999 511.99999"
   id="svg4140"
   version="1.1"
   inkscape:version="0.91 r13725"
   sodipodi:docname="lancher_icon.svg">
  <defs
     id="defs4142" />
  <sodipodi:namedview
     id="base"
     pagecolor="#ffffff"
     bordercolor="#666666"
     borderopacity="1.0"
     inkscape:pageopacity="0.0"
     inkscape:pageshadow="2"
     inkscape:zoom="0.55"
     inkscape:cx="277.78285"
     inkscape:cy="274.80632"
     inkscape:document-units="px"
     inkscape:current-layer="layer1"
     showgrid="false"
     units="px"
     inkscape:showpageshadow="false"
     inkscape:window-width="1280"
     inkscape:window-height="751"
     inkscape:window-x="0"
     inkscape:window-y="1"
     inkscape:window-maximized="1" />
  <metadata
     id="metadata4145">
    <rdf:RDF>
      <cc:Work
         rdf:about="">
        <dc:format>image/svg+xml</dc:format>
        <dc:type
           rdf:resource="http://purl.org/dc/dcmitype/StillImage" />
        <dc:title></dc:title>
      </cc:Work>
    </rdf:RDF>
  </metadata>
  <g
     inkscape:label="Layer 1"
     inkscape:groupmode="layer"
     id="layer1"
     transform="translate(0,-540.36219)">
    <circle
       style="opacity:1;fill:#000000;fill-opacity:1;fill-rule:evenodd;stroke:none;stroke-width:4;stroke-linecap:round;stroke-linejoin:round;stroke-miterlimit:4;stroke-dasharray:none;stroke-opacity:0"
       id="path4688"
       cx="256"
       cy="796.36218"
       r="256" />
    <path
       style="fill:#ffffff"
       d="m 232.97978,540.1102 0,47.9398 C 135.93214,598.75549 58.899994,675.7903 48.194499,772.83793 l -47.94247761,0 0,46.54449 47.94247761,0 c 10.705495,97.04764 87.737641,174.08245 184.785281,184.78798 l 0,47.9398 46.54449,0 0,-47.9398 c 97.04765,-10.70553 174.08247,-87.74034 184.78797,-184.78798 l 47.93978,0 0,-46.54449 -47.93978,0 C 453.60674,675.7903 376.57192,598.75549 279.52427,588.05 l 0,-47.9398 -46.54449,0 z m 23.27224,93.09164 c 90.06581,0 162.91105,72.84255 162.91105,162.90834 0,90.06579 -72.84524,162.91104 -162.91105,162.91104 -90.06581,0 -162.908359,-72.84523 -162.908359,-162.91104 0,-90.06579 72.842549,-162.90834 162.908359,-162.90834 z"
       id="path6"
       inkscape:connector-curvature="0" />
    <path
       inkscape:connector-curvature="0"
       d="m 334,718.36219 -156,65.26 0,8.49333 59.28,22.96667 22.88,59.28 8.49333,0 65.34667,-156 z"
       id="path6-9"
       style="fill:#ffffff" />
  </g>
</svg>
